# xmcd CD database file
#
# Track frame offsets:
#	150
#	12689
#	28768
#	49482
#	64211
#	86816
#	110018
#	132916
#	144054
#	160227
#	180966
#	195763
#	210858
#
# Disc length: 3439 seconds
#
# Revision: 0
# Processed by: cddbd v1.5.2PL0 Copyright (c) Steve Scherf et al.
# Submitted via: Feurio! 1.68 - http://www.feurio.com
#
DISCID=ad0d6d0d
DTITLE=French Cowboy - Baby Face Nelson Was A French Cowboy
DYEAR=2007
DGENRE=
TTITLE0=Stranger
TTITLE1=Shake
TTITLE2=Happy As Can Be
TTITLE3=The Letter U
TTITLE4=La Ballade De Baby Face Nelson
TTITLE5=Leather Boots
TTITLE6=Second Skin
TTITLE7=Supermarket
TTITLE8=Dis-Moi
TTITLE9=Share
TTITLE10=Changes
TTITLE11=Puke
TTITLE12=Dream - Hymne A La Baise
EXTD=
EXTT0=
EXTT1=
EXTT2=
EXTT3=
EXTT4=
EXTT5=
EXTT6=
EXTT7=
EXTT8=
EXTT9=
EXTT10=
EXTT11=
EXTT12=
PLAYORDER=
